HIERARCHY
ROOT Hips
{
 OFFSET 0.000000 0.000000 0.000000
 CHANNELS 6 Xposition Yposition Zposition Yrotation Xrotation Zrotation
 JOINT Chest
 {
  OFFSET 0.000000 12.953391 -0.028419
  CHANNELS 3 Yrotation Xrotation Zrotation
  JOINT Chest2
  {
   OFFSET 0.000000 10.280254 0.051622
   CHANNELS 3 Yrotation Xrotation Zrotation
   JOINT Chest3
   {
    OFFSET 0.000000 9.287180 0.000000
    CHANNELS 3 Yrotation Xrotation Zrotation
    JOINT Chest4
    {
     OFFSET 0.000000 9.287180 0.000000
     CHANNELS 3 Yrotation Xrotation Zrotation
     JOINT Neck
     {
      OFFSET 0.000000 13.296264 0.000000
      CHANNELS 3 Yrotation Xrotation Zrotation
      JOINT Head
      {
       OFFSET 0.000000 8.959264 0.099003
       CHANNELS 3 Yrotation Xrotation Zrotation
       End Site
       {
        OFFSET 0.000000 17.121337 0.039303
       }
      }
     }
     JOINT RightCollar
     {
      OFFSET -3.193511 7.451388 0.000000
      CHANNELS 3 Yrotation Xrotation Zrotation
      JOINT RightShoulder
      {
       OFFSET -15.792092 0.000000 0.000000
       CHANNELS 3 Yrotation Xrotation Zrotation
       JOINT RightElbow
       {
        OFFSET -31.151839 0.000000 0.000000
        CHANNELS 3 Yrotation Xrotation Zrotation
        JOINT RightWrist
        {
         OFFSET -25.536298 0.000000 0.002321
         CHANNELS 3 Yrotation Xrotation Zrotation
         End Site
         {
          OFFSET -19.133213 0.000000 0.000000
         }
        }
       }
      }
     }
     JOINT LeftCollar
     {
      OFFSET 3.193511 7.451388 0.000000
      CHANNELS 3 Yrotation Xrotation Zrotation
      JOINT LeftShoulder
      {
       OFFSET 15.792092 0.000000 0.000000
       CHANNELS 3 Yrotation Xrotation Zrotation
       JOINT LeftElbow
       {
        OFFSET 31.151839 0.000000 0.000000
        CHANNELS 3 Yrotation Xrotation Zrotation
        JOINT LeftWrist
        {
         OFFSET 25.536298 0.000000 0.002321
         CHANNELS 3 Yrotation Xrotation Zrotation
         End Site
         {
          OFFSET 19.133213 0.000000 0.000000
         }
        }
       }
      }
     }
    }
   }
  }
 }
 JOINT RightHip
 {
  OFFSET -10.745749 0.139252 0.014209
  CHANNELS 3 Yrotation Xrotation Zrotation
  JOINT RightKnee
  {
   OFFSET 0.000000 -43.743899 -0.006071
   CHANNELS 3 Yrotation Xrotation Zrotation
   JOINT RightAnkle
   {
    OFFSET 0.000000 -43.214199 0.089931
    CHANNELS 3 Yrotation Xrotation Zrotation
    JOINT RightToe
    {
     OFFSET 0.000000 -9.699830 19.151588
     CHANNELS 3 Yrotation Xrotation Zrotation
     End Site
     {
      OFFSET 0.000000 -1.292898 4.893873
     }
    }
   }
  }
 }
 JOINT LeftHip
 {
  OFFSET 10.745749 0.139252 0.014209
  CHANNELS 3 Yrotation Xrotation Zrotation
  JOINT LeftKnee
  {
   OFFSET 0.000000 -43.743899 -0.006071
   CHANNELS 3 Yrotation Xrotation Zrotation
   JOINT LeftAnkle
   {
    OFFSET 0.000000 -43.214199 0.089931
    CHANNELS 3 Yrotation Xrotation Zrotation
    JOINT LeftToe
    {
     OFFSET 0.000000 -9.699830 19.151588
     CHANNELS 3 Yrotation Xrotation Zrotation
     End Site
     {
      OFFSET 0.000000 -1.292898 4.893873
     }
    }
   }
  }
 }
}
MOTION
Frames: 9
Frame Time: 0.016667
-98.589083 95.663733 -37.155656 38.580149 4.171402 -8.503553 1.196817 7.819700 -0.128099 0.532801 3.475129 -0.077028 0.532797 3.475144 -0.077033 0.399911 2.606298 -0.060790 0.219384 13.490708 -8.885436 3.943079 -10.580207 -16.879165 2.227009 -7.599630 1.745830 -26.814228 -31.939645 41.917120 15.108715 -14.455993 -8.182657 1.150949 1.823527 -23.949892 -1.495948 -3.852627 -3.579052 3.712601 -17.360689 -29.024708 12.768881 15.077736 9.376870 26.782457 14.452604 6.536891 -23.512777 -8.120179 -0.841921 3.031304 20.742215 -1.910314 -14.053370 -5.067424 7.999407 -0.025256 -1.510810 2.476379 19.022667 -30.856166 -6.281140 8.494212 49.028785 3.919793 6.471674 -10.426318 6.818407 -0.311088 -12.321662 0.182304
-97.273698 96.545048 -35.986388 40.134256 4.716491 -8.489191 1.396172 7.599113 -0.127348 0.621299 3.377086 -0.079411 0.621359 3.377134 -0.079428 0.466363 2.532799 -0.063001 0.186646 13.723785 -8.928990 3.864780 -10.149896 -16.920806 2.183114 -7.069837 2.072707 -27.928985 -30.050521 43.556237 16.917768 -17.225163 -8.366700 2.328721 1.274823 -25.128280 -0.804416 -3.743015 -3.937350 5.099015 -16.392481 -31.772872 12.478861 14.950868 9.614777 27.101599 14.390376 6.057214 -24.263048 -6.817281 -1.742565 3.209396 19.374153 -1.245408 -14.089046 -1.678067 7.974189 -0.022538 -3.772980 5.956888 17.436831 -31.103891 -6.301210 8.083684 43.612097 1.737400 6.995174 -11.157156 5.002156 -0.299202 -5.098603 0.061079
-95.865886 97.265294 -34.798607 41.652653 5.023722 -8.673069 1.588858 7.459251 0.003773 0.704557 3.315222 -0.023916 0.704557 3.315222 -0.023916 0.528400 2.486393 -0.021758 0.207514 14.016827 -8.991494 3.884780 -9.598687 -17.013417 2.099571 -6.548841 2.441302 -28.601479 -28.428890 44.838730 18.674543 -19.233114 -8.543188 3.606055 0.978375 -26.185380 -0.019338 -3.622544 -4.225654 6.331803 -15.247871 -34.446120 12.189660 15.368553 9.671490 27.408475 14.533497 5.403823 -24.610417 -5.879410 -2.555450 2.897308 19.090132 -0.745924 -13.689144 1.884320 7.758480 -0.060007 -6.706212 9.072427 16.976947 -30.507934 -6.665322 7.470489 37.908088 0.463965 7.136404 -11.698765 3.500608 0.000000 -0.000000 0.000000
-94.353396 97.798289 -33.570109 43.147718 5.072332 -9.191676 1.762794 7.397391 0.354485 0.776055 3.288898 0.129052 0.776016 3.288822 0.129052 0.581133 2.466744 0.092584 0.295761 14.419216 -9.082608 4.023927 -8.832457 -17.172531 2.018163 -5.942233 2.907409 -28.792050 -27.278271 45.630507 20.211507 -20.452136 -8.617975 5.005867 0.961287 -27.099322 0.915506 -3.381766 -4.440473 7.297009 -13.952631 -36.995730 12.068615 16.580068 9.427420 27.750232 14.941518 4.757586 -24.291586 -5.372130 -3.242549 1.658061 20.153882 -0.389690 -12.684923 5.628431 7.338161 -0.408433 -11.044920 11.104562 18.656409 -28.529436 -7.706292 6.062154 31.223123 0.295072 6.416582 -12.003398 1.886672 0.170095 1.399418 0.153331
-92.748480 98.170215 -32.323099 44.607539 4.902283 -9.927757 1.928697 7.401567 0.844741 0.841899 3.292926 0.343778 0.841931 3.292864 0.343760 0.629444 2.470097 0.253197 0.438472 14.882482 -9.185796 4.259605 -7.944174 -17.365756 1.894736 -5.345357 3.412219 -28.605778 -26.384785 46.082919 21.579907 -20.944563 -8.625785 6.429143 1.209247 -27.914542 1.942886 -3.136695 -4.576182 8.092815 -12.509806 -39.464375 12.051023 18.352441 9.119920 28.070796 15.566509 3.948659 -23.541572 -5.230738 -3.853589 0.004495 22.342869 -0.167072 -11.243806 9.529755 6.754102 -1.024413 -16.034901 12.818947 21.331189 -25.662975 -8.828578 4.003644 24.238648 0.539602 5.304413 -12.070029 0.452914 0.096888 0.697185 0.087632
-91.097655 98.267614 -31.093653 45.997734 4.511012 -10.600699 2.104608 7.507071 1.282079 0.912527 3.342238 0.534433 0.912527 3.342238 0.534433 0.681276 2.507485 0.395717 0.635102 15.305834 -9.235553 4.581302 -7.127062 -17.482702 1.639730 -5.039963 3.800490 -28.443112 -25.438640 46.524349 23.209503 -20.493003 -8.722092 7.737255 1.693968 -28.772296 2.860944 -3.206984 -4.609035 8.894284 -10.790239 -41.563199 11.932102 20.266369 8.800293 28.178858 16.712758 2.043522 -22.657572 -5.489159 -4.342467 -1.250863 25.503403 -0.343564 -9.710822 13.034530 5.765995 -1.415018 -19.420198 14.923602 22.948647 -23.262522 -9.395777 2.349418 19.467609 0.591054 4.219254 -11.657350 0.854725 0.000000 0.000000 0.000000
-89.382141 98.019142 -29.894403 47.192212 3.743529 -11.156647 2.343895 7.796257 1.628135 1.011618 3.473291 0.682505 1.011480 3.473367 0.682555 0.754401 2.606212 0.506039 0.907405 15.674818 -9.209688 5.022051 -6.407287 -17.491485 1.290691 -5.017356 4.004401 -28.467611 -24.523956 47.046727 25.149335 -18.875820 -8.866716 8.854610 2.470586 -29.713440 3.646651 -3.776714 -4.506004 9.758140 -8.635710 -43.238381 11.539745 22.466251 8.425808 27.802711 18.683186 -1.672739 -21.725824 -6.186903 -4.712127 -1.729338 29.845940 -1.042685 -8.046099 16.023164 3.969959 -0.980038 -20.647448 18.914097 22.661499 -21.859383 -9.276288 1.857956 18.299312 0.455445 2.990154 -10.222523 4.757551 0.000000 0.000000 0.000000
-87.620717 97.496143 -28.712717 48.322788 2.745863 -11.664711 2.598508 8.193325 1.933610 1.117404 3.652383 0.811216 1.117264 3.652487 0.811274 0.832715 2.740927 0.601605 1.233156 15.998029 -9.134656 5.549540 -5.769879 -17.430302 0.804503 -5.271786 4.072692 -28.515016 -23.552707 47.550716 27.231844 -16.315413 -8.965209 9.787682 3.487052 -30.684894 4.315578 -4.673471 -4.345505 10.659361 -6.278617 -44.509469 11.028471 24.823497 8.017277 26.856109 21.187221 -6.569666 -20.655092 -7.291752 -4.989064 -1.820460 35.156319 -2.000355 -6.413954 18.660008 1.722796 0.331436 -20.730057 22.989812 21.448013 -20.928207 -8.879328 1.879221 19.350226 0.355379 1.984969 -8.234435 10.533407 0.000000 0.000000 0.000000
-85.916236 96.799184 -27.546779 49.732247 1.957370 -12.023039 2.734699 8.506199 2.131999 1.172774 3.792968 0.894591 1.172774 3.792968 0.894591 0.873702 2.846462 0.663413 1.545077 16.206284 -9.024790 6.057250 -5.351291 -17.311086 -0.034310 -6.080077 4.011329 -28.485716 -21.967851 48.093607 29.561000 -13.224570 -9.096740 10.545711 4.552336 -31.684332 4.725523 -5.676590 -4.280240 11.695582 -4.213794 -45.219224 10.612159 26.503360 7.627054 25.676429 23.678737 -11.491736 -19.481079 -8.725050 -5.190527 -1.864369 40.617094 -2.846908 -5.376233 20.816649 -0.029994 1.894057 -19.183406 23.133582 20.100040 -20.280111 -8.620978 1.449263 21.019597 0.185314 1.853405 -7.183713 15.099027 0.000000 0.000000 0.000000
